<?xml version="1.0" standalone="yes"?>
<svg xmlns="http://www.w3.org/2000/svg" width="256" height="256">
<path style="fill:#050403; stroke:none;" d="M0 0L0 256L80 256L80 252C94.554 251.95 94.4343 233.795 93.9815 222C93.8534 218.662 92.109 211.496 87.2508 212.647C83.4546 213.547 83.1596 221.368 80 224C80 211.413 81.3132 203.368 78.2052 190.91C76.8687 185.553 76.7984 179.11 70 180L72 176L72 175L72 174L69.5448 163.285L65 131L66 131L72 139C75.5021 124.29 70.8014 108.297 79.1466 94C95.6078 65.7979 155.177 47.9754 177.525 78C181.46 83.2854 182.148 89.8879 184.018 96C186.71 104.802 192.129 113.609 192.612 123C193.178 134 188.58 143.178 194 154L196 154C199.986 146.938 202.909 140.272 203 132L206 132C206 144.366 204.942 157.524 199.175 168.689C196.953 172.991 191.789 173.846 189.279 177.765C187.588 180.403 188.141 183.789 187.289 186.715C185.051 194.405 180.052 202.846 180.262 210.996C180.427 217.412 188.759 219.565 192.215 223.75C195.067 227.204 196.062 231.572 199.619 234.541C205.636 239.563 211.936 239.844 218.676 242.838C230.772 248.21 242.426 255.999 256 256L256 0L0 0z"/>
<path style="fill:#67483c; stroke:none;" d="M118 34L109 37L109 38L112 37C113.085 42.0632 123.692 40.3802 128 40L128 43L124 43L124 47C121.752 46.838 117.385 45.9249 121 44L121 43L104 44L104 40L108 40L108 38C101.85 38.832 90.1377 42.2952 89 49C79.2057 49.5342 68.2924 62.3634 68 72L64 72L63 87L64 87L64 76C73.7425 70.9257 81.885 69 93 69C94.3963 73.2012 97.6037 73.2012 99 69L94 69C98.8721 65.7548 103.052 69.0536 108 71L116 67L119 64L118 59C104.54 63.5905 90.5831 64.9984 76 65C82.7418 53.3422 90.2613 58.9786 101 59C111.262 59.0205 123.993 57.3532 133.87 54.686C140.778 52.8204 144.105 46.0396 152.995 48.919C162.608 52.0325 169.368 64.2236 179 67L176 60L176 59L194 76L191 78L200 105L201 105L202 102C193.394 92.4808 201.502 81.7625 196.177 72.0193C191.143 62.8091 176.345 60.2731 174 50L162 46L163 49C158.121 49.4088 142.567 40.3951 140 36L133 36L134 34L123 36L120 34L118 34z"/>
<path style="fill:#9b8382; stroke:none;" d="M120 34L123 36L120 34M133 36L136 34L133 36M129 36L132 39L129 36M140 36C141.366 39.8839 144.184 39.9074 148 40L148 38L140 36M111 37L104 40L104 44L121 43L121 44L118 44L124 47L124 43L128 43L128 40C122.208 40.2178 115.462 41.2595 111 37z"/>
<path style="fill:#67483c; stroke:none;" d="M142 37L143 38L142 37z"/>
<path style="fill:#9b8382; stroke:none;" d="M102 38L102 40L104 40L104 38L102 38M148 40C150.861 44.8757 157.188 50.2798 163 49L163 47L148 40z"/>
<path style="fill:#050403; stroke:none;" d="M137 41L137 43L141 43L141 41L137 41z"/>
<path style="fill:#67483c; stroke:none;" d="M158 44L160 46L160 44L158 44z"/>
<path style="fill:#9b8382; stroke:none;" d="M112 46L112 48L116 48L116 46L112 46M128 50L131 48L128 50z"/>
<path style="fill:#050403; stroke:none;" d="M103 49L106 53L103 49z"/>
<path style="fill:#9b8382; stroke:none;" d="M110 52L114 52L113 49L110 52M116 49L118 52L116 49M174 50C173.917 55.5093 178.761 59.2397 184 60L176 50L174 50z"/>
<path style="fill:#67483c; stroke:none;" d="M140 51L139 52L139 54L143 55L142 51L140 51z"/>
<path style="fill:#9b8382; stroke:none;" d="M93 52C95.4543 54.2971 96.5457 54.2971 99 52L93 52z"/>
<path style="fill:#67483c; stroke:none;" d="M178 53L179 54L178 53M182 57L183 58L182 57z"/>
<path style="fill:#050403; stroke:none;" d="M175 58L176 59L175 58z"/>
<path style="fill:#67483c; stroke:none;" d="M130 59L129 60L132 63L132 59L130 59M72 139L66 131L65 131L70 172L72 171L74 178L70 178L70 179L70 180C73.5034 180.055 74.9073 180.61 76 184L82 182L82 181L82 180C72.5662 169.555 70 153.468 70 140L74 140L74 144L76 144L76.51 130.184L82 120L100 120L98 124C100.889 124 104.07 123.654 106.907 124.278C121.988 127.594 113.172 143.202 112 152L106 156C116.429 154.582 124.941 137.84 124 128C132.415 128.637 139.129 148.069 133.847 154.656C128.786 160.968 123.063 155.22 117.019 156.372C114.305 156.889 111.58 159.662 112.662 162.606C114.312 167.096 123.075 167.974 127.001 167.999C137.568 168.068 145.956 168.81 146 156L154 156L154 154C145.322 153.406 136.228 137.244 141.032 129.343C144.127 124.254 160.449 120.062 166 120L164 124C168.357 125.122 170.878 127.643 172 132C164.73 127.65 158.262 128 150 128L152 134L160 134L160 130L171 134L178 126L179 126L180 126L182 128L182 129L182 130L180 130L180 131L180 132C185.248 138.965 178.166 151.377 170 152L170 154L180 152L184 132L188 132L188 128L190 128L191.361 153.855L183.255 165.745L176 182L176 183L176 184C180.375 190.042 172.07 191.582 169.274 195.764C162.279 206.226 155.998 209.527 144.804 215.405C139.739 218.065 135.506 222.171 130 218L129 218L128 218L122 222L121 222L120 222L120 220L119 220L118 220L118 222L117 222L116 222C114.498 218.958 111.099 214.49 108 218L107 218L106 218L100 206C89.7864 205.992 88.2003 200.044 80 196L80 224L83 223L83 208L84 208L84 214C90.7048 211.651 93.5773 216.696 94 223L96 222L96 226L100 226L98 228L98 229L98 230C104.055 233.178 120.264 242.564 126 236L127 236L128 236L137 236.519L152.711 237.54L168 230L180 206L181 206L181 208L182 208C181.819 200.778 185.585 184.674 189.279 178.519C193.86 170.884 200.626 170.387 202 160L201 160C199.204 165.693 197.678 170.321 192 173C192 162.289 194.642 155.24 203 148L203 160L204 160L206 132L203 132L196 154L194 154C189.85 142.469 193.318 134.386 192.817 123C192.389 113.269 186.805 104.112 184.018 95C182.008 88.4294 181.264 81.5029 176.736 76.0008C154.202 48.6179 95.0315 65.8185 79.1466 93C70.6778 107.492 74.7953 123.934 72 139z"/>
<path style="fill:#b67358; stroke:none;" d="M74 120C77.9706 119.416 79.4163 117.971 80 114L84 114L84 112L80 112C78.1945 97.968 86.7774 99.4682 95.6528 91.6165C110.913 78.1165 124.333 70 145 70C149.713 70 156.295 68.8404 160.674 70.8434C175.366 77.5632 171.939 93.5544 174.26 105.829C175.128 110.421 178.861 113.559 180 118L184 120L185 120C190.393 114.87 185.364 110.701 184.259 104.911C181.88 92.44 181.253 78.4902 169.522 70.7145C157.023 62.43 142.877 63.2793 128.91 65.7407C100.085 70.8207 74.11 87.9368 74 120z"/>
<path style="fill:#9b8382; stroke:none;" d="M188 64L192 68L188 64z"/>
<path style="fill:#67483c; stroke:none;" d="M190 65L191 66L190 65z"/>
<path style="fill:#9b8382; stroke:none;" d="M69 68L72 66L69 68M66 70L66 72L68 72L68 70L66 70z"/>
<path style="fill:#f6b08b; stroke:none;" d="M80 112L86 110L87 110L88 110L88 112L89 112L90 112C99.3467 104.919 123.113 111.047 124 124L132 125L134 114L176 110C171.369 97.9127 177.407 76.3127 160.674 70.51C136.316 62.0627 112.281 76.6337 94.9637 91.6165C86.2795 99.1298 76.925 98.1618 80 112z"/>
<path style="fill:#9b8382; stroke:none;" d="M192 74L195 72L192 74M62 74L62 76L64 76L64 74L62 74M198 78L198 98C205.005 94.3273 200.005 84.39 200 78L198 78M200 98L200 102L202 102L202 98L200 98z"/>
<path style="fill:#67483c; stroke:none;" d="M190 99L190 105L192 105L192 99L190 99M201 106C199.604 110.657 197.085 117.032 203 119C203.624 114.06 204.952 109.76 201 106z"/>
<path style="fill:#9b8382; stroke:none;" d="M202 106L202 108L204 108L204 106L202 106z"/>
<path style="fill:#b67358; stroke:none;" d="M164 108L164 110L172 110L172 108L164 108M86 110L86 112L88 112L88 110L86 110M90 110L91 111L90 110M108 110L108 112L112 112L112 110L108 110M142 110L142 112L146 112L146 110L142 110M114 112L114 114L116 114L116 112L114 112M138 112L138 114L140 114L140 112L138 112M116 114L120 124L124 124C123.832 118.457 121.76 114.839 116 114M134 114L132 124L138 114L134 114M82 120L76.51 129.326L76 144L74 144L74 140L70 140C70 151.866 71.4255 172.11 82 180L82 181L82 182L76 184C81.1277 196.079 85.1649 205.998 100 206L106 218L107 218L108 218C111.576 215.825 113.888 219.091 116 222L117 222L118 222L118 220L119 220L120 220L120 222L121 222L122 222L128 218L129 218L130 218C134.053 222.639 139.888 218.636 144.014 216.249C155.027 209.877 162.363 207.451 169.274 196.515C171.622 192.799 181.848 189.113 176 184L176 183L176 182L182.82 167.31L191.471 154.689L190 128L188 128L188 132L184 132L180 152L176 152C174.321 159.403 170.323 168.688 163.482 172.722C158.381 175.73 150.445 173.709 148.51 167.816C147.334 164.233 148 159.729 148 156L146 156C145.852 169.258 130.996 170.856 120.424 166.957C117.156 165.751 111.369 163.857 110.662 159.854C110.139 156.89 113.422 154.163 115 152C103.008 158.173 111.202 165.715 120 170L120 171L120 172C112.159 175.004 96.4624 176.704 89.8603 170.14C85.8265 166.129 84.4778 159.341 80 156L80 155L80 154L91.0039 155.738L112 152L114 145L113 145C102.124 158.737 89.8576 149.847 78 144L78 143L78 142C86.2967 137.96 106.89 136.509 116 140L116 130L107.816 135.49L96 138L95 138L94 138C91.806 133.815 88.3495 134.015 84 134L82 130L82 129L82 128L94 122L95 122L96 122L96 124L97 124L98 124L100 120L82 120M156 124C160.547 123.984 163.311 123.935 166 120C161.65 120.015 158.194 119.815 156 124M188 120L188 124L190 124L190 120L188 120M79 122L78 124L80 124L79 122z"/>
<path style="fill:#f6b08b; stroke:none;" d="M94 122L94 124L96 124L96 122L94 122z"/>
<path style="fill:#67483c; stroke:none;" d="M202 123L201 126L204 126L202 123z"/>
<path style="fill:#9b8382; stroke:none;" d="M92 124L92 128L110 128C106.675 132.581 103.603 133.937 98 134L97 130L95 130L92 136C97.0865 136 113.444 138.575 113.444 130C113.444 121.425 97.0865 124 92 124M170 134L170 132L160 130L160 134L152 134L150 128L172 132C170.397 121.097 148.047 121.228 141.621 127.874C137.201 132.446 146.92 135.722 150.039 135.946C152.674 136.135 155.36 136.005 158 136C162.366 135.991 165.825 134.931 170 134z"/>
<path style="fill:#b67358; stroke:none;" d="M166 124L166 126L168 126L168 124L166 124M128 125L128 126L132 126L128 125z"/>
<path style="fill:#67483c; stroke:none;" d="M82 128L82 129L82 130L84 134L94 134L95 130L97 130L98 134C103.566 133.981 107.37 133.326 110 128L82 128z"/>
<path style="fill:#b67358; stroke:none;" d="M178 126L172 134L180 132L180 140L182 140L180 132L180 131L180 130L182 130L182 129L182 128L180 126L178 126M124 128L120 141L127 132L124 128z"/>
<path style="fill:#f6b08b; stroke:none;" d="M125 128L127 132C121.6 135.151 110.2 155.955 110 162L112 162C113.864 150.311 127.367 161.11 133.677 154.683C138.456 149.816 131.79 129.06 125 128z"/>
<path style="fill:#b67358; stroke:none;" d="M129 128L130 129L129 128M130 129L131 130L130 129z"/>
<path style="fill:#9b8382; stroke:none;" d="M103 130L102 132L104 132L103 130z"/>
<path style="fill:#b67358; stroke:none;" d="M131 130L132 131L131 130z"/>
<path style="fill:#9b8382; stroke:none;" d="M156 130L156 132L158 132L156 130z"/>
<path style="fill:#b67358; stroke:none;" d="M140 132C141.685 144.737 144.592 148.636 154 156L155 156L156 156L172 156C167.998 148.367 156.957 153.844 150.189 151.486C146.5 150.201 146.602 146.214 144 144L144 143L144 142C148.153 138.37 143.748 133.85 140 132z"/>
<path style="fill:#f6b08b; stroke:none;" d="M178 132L158 136L160 140L146 136L144 142L144 143L144 144C145.661 146.123 146.117 149.754 148.573 151.142C151.417 152.751 155.863 152 159 152C173.302 152 179.998 146.988 180 132L178 132z"/>
<path style="fill:#b67358; stroke:none;" d="M170 133L171 134L170 133M204 133L203 148L204 148L204 133z"/>
<path style="fill:#f6b08b; stroke:none;" d="M144 134L144 136L146 136L146 134L144 134M94 136L94 138L96 138L96 136L94 136z"/>
<path style="fill:#b67358; stroke:none;" d="M148 136C150.502 140.772 155.196 139.999 160 140C157.498 135.228 152.804 136.001 148 136M132 137L135 148L132 137z"/>
<path style="fill:#f6b08b; stroke:none;" d="M78 142L78 143L78 144C86.0644 149.84 96.8624 156.283 107.482 151.157C111.258 149.334 113.22 144.903 116 142L116 141C111.117 135.867 105.863 139.178 99.9606 139.871C91.0699 140.915 85.7523 136.517 78 142z"/>
<path style="fill:#b67358; stroke:none;" d="M114 142L114 144L116 144L116 142L114 142M178 142L172 152C177.594 151.079 179.821 147.429 180 142L178 142M118 144L117 148L118 144z"/>
<path style="fill:#67483c; stroke:none;" d="M76 146L78 152L82 152L76 146z"/>
<path style="fill:#b67358; stroke:none;" d="M116 148L117 149L116 148M135 148L136 149L135 148M201 148C195.491 157.815 192 161.268 192 173C201.82 170.211 203 156.582 203 148L201 148z"/>
<path style="fill:#67483c; stroke:none;" d="M82 152L82 154L86 154L86 152L82 152z"/>
<path style="fill:#b67358; stroke:none;" d="M135 153L136 154L135 153z"/>
<path style="fill:#f6b08b; stroke:none;" d="M80 154C86.5761 170.408 102.024 181.354 120 172L120 171L120 170C114.474 166.086 108.507 163.402 108 156L80 154z"/>
<path style="fill:#67483c; stroke:none;" d="M94 154L94 156L102 156L102 154L94 154z"/>
<path style="fill:#b67358; stroke:none;" d="M134 154L135 155L134 154z"/>
<path style="fill:#67483c; stroke:none;" d="M156 154L156 156L162 156L162 154L156 154z"/>
<path style="fill:#f6b08b; stroke:none;" d="M148 156C148 159.785 147.425 164.112 148.278 167.816C149.767 174.286 159.164 175.877 164.24 172.722C170.782 168.655 173.291 160.758 176 154L148 156z"/>
<path style="fill:#b67358; stroke:none;" d="M133 155L134 156L133 155M112 159L115 156L112 159M121 156L121 157L132 158L132 157L121 156z"/>
<path style="fill:#9b8382; stroke:none;" d="M71 171L70 174L71 174L72 174L71 171z"/>
<path style="fill:#f6b08b; stroke:none;" d="M71 172L72 173L71 172z"/>
<path style="fill:#9b8382; stroke:none;" d="M72 175L71 176L70 176L71 179C73.1127 177.681 74.2907 176.665 72 175z"/>
<path style="fill:#f6b08b; stroke:none;" d="M71 176L71 178L73 176L71 176M118 176L118 178L126 178L126 176L118 176M128 176L128 178L136 178L136 176L128 176z"/>
<path style="fill:#67483c; stroke:none;" d="M148 178L148 180L150 180L150 178L148 178M102 180L102 186L123 184.015L156 186L156 182L135 179.129L102 180M76 185L77 186L76 185z"/>
<path style="fill:#f6b08b; stroke:none;" d="M112 188L112 189C123.694 191.401 134.543 192.115 146 188C135.23 183.468 122.857 184.448 112 188z"/>
<path style="fill:#67483c; stroke:none;" d="M77 186L78 187L77 186z"/>
<path style="fill:#f6b08b; stroke:none;" d="M108 196L108 208L112 208L112 212L120 216L121 216L122 216L137.816 213.722L148 208L156 190C148.451 191.099 141.488 197.584 133.829 199.54C124.747 201.86 116.228 199.298 108 196z"/>
<path style="fill:#67483c; stroke:none;" d="M122 192L122 194L132 194L132 192L122 192M78 193L79 194L78 193M128 196L128 198L130 198L130 196L128 196z"/>
<path style="fill:#b67358; stroke:none;" d="M180.333 206.667L180.667 207.333L180.333 206.667z"/>
<path style="fill:#9b8382; stroke:none;" d="M83 208C82.716 212.154 77.7249 220.655 84 222L82 217L82 216L82 215C84.8851 212.955 85.0432 210.809 83 208z"/>
<path style="fill:#b67358; stroke:none;" d="M180 214L168 230L151.829 237.54L137 236.258L128 236L127 236L126 236C118.395 241.762 105.642 232.938 98 230L98 229L98 228L100 226L96 226L96 222L95 222C91.8569 232.633 97.8083 253.996 111.093 255.867C120.355 257.171 128.458 252 138 252L138 256C158.03 256 182 251.759 182 227C182 222.515 182.796 217.691 180 214z"/>
<path style="fill:#67483c; stroke:none;" d="M181 214L182 215L181 214z"/>
<path style="fill:#f6b08b; stroke:none;" d="M82 215L82 217L84 217L84 215L82 215z"/>
<path style="fill:#67483c; stroke:none;" d="M182 216L181.157 236.674L170 252C176.56 252.63 186.266 238.39 186.466 232C186.579 228.403 185.041 224.711 185 221L193 228L194 228C193.12 221.959 187.164 218.516 182 216z"/>
<path style="fill:#9b8382; stroke:none;" d="M182 217L182 220L183 220L182 217z"/>
<path style="fill:#67483c; stroke:none;" d="M83 219L84 220L83 219z"/>
<path style="fill:#9b8382; stroke:none;" d="M184 219L185 220L184 219M185 221C185 233.201 184.355 239.923 175.528 249.917C172.866 252.93 168.882 250.907 168 255L163 254C166.702 258.236 178.627 256 184 256L245 256L245 255C237.178 250.923 223.501 251.635 220 242C207.918 244.203 204.699 235.384 195 232L196 228L185 221z"/>
<path style="fill:#67483c; stroke:none;" d="M195 231L196 232L195 231M92 232C92 240.235 93.5793 250.526 83 252L83 253C95.4495 252.162 91.8902 240.862 94 232L92 232z"/>
<path style="fill:#9b8382; stroke:none;" d="M93 233C93 243.353 93.2464 253.526 80 252C82.4249 259.306 101.386 256 108 256L93 233z"/>
<path style="fill:#67483c; stroke:none;" d="M198 233L200 236L198 233M200 236L200 237L218 243L200 236M220 244C223.48 249.1 230.305 250.569 236 252L220 244M122 256L138 256L138 252C132.455 252 124.977 250.322 122 256M152 254L152 256L163 256C160.752 250.408 156.632 252.968 152 254M166 252L166 255L168 255L168 252L166 252M236 252L236 253L246 256C243.806 251.815 240.35 252.015 236 252M80 255L81 256L80 255z"/>
</svg>
